<svg xmlns="http://www.w3.org/2000/svg" viewBox="0 0 119.92 88.83"><defs><style>.cls-1{font-size:41px;font-family:Raleway-ExtraBold, Raleway;font-weight:800;}.cls-1,.cls-4{fill:#fff;}.cls-2{letter-spacing:0em;}.cls-3{letter-spacing:-0.01em;}</style></defs><g id="Layer_2" data-name="Layer 2"><g id="Layer_1-2" data-name="Layer 1"><text class="cls-1" transform="translate(0 79.69)"><tspan class="cls-2">s</tspan><tspan class="cls-3" x="20.21" y="0">t</tspan><tspan x="36.45" y="0">ems</tspan></text><path class="cls-4" d="M82.63,6.94h-.09V0h-9V7L37.86,7Q28.7,15,19.54,23.05h9.05V48.65H56.82c.16-1.6.26-3,.33-4a17.65,17.65,0,0,0,0-3A25.64,25.64,0,0,0,56,37a11.5,11.5,0,0,1,.41-6.23,37.91,37.91,0,0,1-5.1-.52C50.39,30,50,30,49.52,29.84c-1.9-.54-1.71-1-3.42-1.49-.85-.24-1.78-.38-2.17-1.13L43.84,27c.21-2.91.83-3.85,1.4-4.12.12-.06.59-.3,1.32-.63a7.48,7.48,0,0,0,1-.56,17,17,0,0,0,1.81-1.44c.22-.19.9-.82,1.51-1.48A23.31,23.31,0,0,0,53.53,15c1.81-2.74,2.88-4.38,4.37-4.47.83,0,2,.82,4.18,2.57,1.08.85,2,1.61,2.54,2.14A7.35,7.35,0,0,1,66.88,18a7.84,7.84,0,0,0,1.71,2.79,3.61,3.61,0,0,0,.61.46,9,9,0,0,0,2.13.87c.75.19,1.79,1.09,3,4.34a5.88,5.88,0,0,1-3.15,2.88c-1.45.47-2.49-.06-4.12-.16a10.75,10.75,0,0,0-6.34,1.76,22,22,0,0,1,.18,5.63c-.15,1.48-.32,1.64-.43,3-.22,2.69.27,4,.48,6.48A26.15,26.15,0,0,1,61,48.65H91.22V23.14h9.16ZM46.43,31.65v8.67H37.75V31.65Zm35.95,8.67H73.7V31.65h8.68Z"/></g></g></svg>